<?xml version="1.0" encoding="UTF-8" standalone="no"?>
<!-- Generator: Adobe Illustrator 19.0.0, SVG Export Plug-In . SVG Version: 6.00 Build 0)  -->

<svg
   version="1.1"
   id="svg4823"
   x="0px"
   y="0px"
   viewBox="-201 374.4 52.395808 48.221086"
   xml:space="preserve"
   width="52.395809"
   height="48.221085"
   sodipodi:docname="commerce-img.svg"
   inkscape:version="1.1.2 (b8e25be833, 2022-02-05)"
   xmlns:inkscape="http://www.inkscape.org/namespaces/inkscape"
   xmlns:sodipodi="http://sodipodi.sourceforge.net/DTD/sodipodi-0.dtd"
   xmlns="http://www.w3.org/2000/svg"
   xmlns:svg="http://www.w3.org/2000/svg"><sodipodi:namedview
   id="namedview53683"
   pagecolor="#ffffff"
   bordercolor="#666666"
   borderopacity="1.0"
   inkscape:pageshadow="2"
   inkscape:pageopacity="0.0"
   inkscape:pagecheckerboard="0"
   showgrid="false"
   inkscape:zoom="3.405"
   inkscape:cx="-71.659325"
   inkscape:cy="24.082232"
   inkscape:window-width="1920"
   inkscape:window-height="1046"
   inkscape:window-x="-11"
   inkscape:window-y="-11"
   inkscape:window-maximized="1"
   inkscape:current-layer="layer1-3"
   showguides="true" /><defs
   id="defs53"><filter
     style="color-interpolation-filters:sRGB"
     id="filter50275"
     x="-0.0067754213"
     y="-0.029236134"
     width="1.0167884"
     height="1.0667457"><feFlood
       flood-opacity="0.72549"
       flood-color="rgb(15,15,15)"
       result="flood"
       id="feFlood50265" /><feComposite
       in="flood"
       in2="SourceGraphic"
       operator="in"
       result="composite1"
       id="feComposite50267" /><feGaussianBlur
       in="composite1"
       stdDeviation="17.5"
       result="blur"
       id="feGaussianBlur50269" /><feOffset
       dx="13.4675"
       dy="6.34675"
       result="offset"
       id="feOffset50271" /><feComposite
       in="SourceGraphic"
       in2="offset"
       operator="over"
       result="composite2"
       id="feComposite50273" /></filter><filter
     style="color-interpolation-filters:sRGB"
     id="filter104406"
     x="0"
     y="0"
     width="1.0323834"
     height="1.0794492"><feFlood
       flood-opacity="0.909804"
       flood-color="rgb(15,15,15)"
       result="flood"
       id="feFlood104396" /><feComposite
       in="flood"
       in2="SourceGraphic"
       operator="in"
       result="composite1"
       id="feComposite104398" /><feGaussianBlur
       in="composite1"
       stdDeviation="2.77556e-17"
       result="blur"
       id="feGaussianBlur104400" /><feOffset
       dx="0.9"
       dy="0.6"
       result="offset"
       id="feOffset104402" /><feComposite
       in="SourceGraphic"
       in2="offset"
       operator="over"
       result="composite2"
       id="feComposite104404" /></filter><filter
     style="color-interpolation-filters:sRGB"
     id="filter104418"
     x="0"
     y="0"
     width="1.0058618"
     height="1.0185673"><feFlood
       flood-opacity="0.909804"
       flood-color="rgb(15,15,15)"
       result="flood"
       id="feFlood104408" /><feComposite
       in="flood"
       in2="SourceGraphic"
       operator="in"
       result="composite1"
       id="feComposite104410" /><feGaussianBlur
       in="composite1"
       stdDeviation="2.77556e-17"
       result="blur"
       id="feGaussianBlur104412" /><feOffset
       dx="0.9"
       dy="0.6"
       result="offset"
       id="feOffset104414" /><feComposite
       in="SourceGraphic"
       in2="offset"
       operator="over"
       result="composite2"
       id="feComposite104416" /></filter><filter
     style="color-interpolation-filters:sRGB"
     id="filter66104"
     x="0"
     y="0"
     width="1.028116"
     height="1.1034691"><feFlood
       flood-opacity="1"
       flood-color="rgb(82,95,96)"
       result="flood"
       id="feFlood66094" /><feComposite
       in="flood"
       in2="SourceGraphic"
       operator="in"
       result="composite1"
       id="feComposite66096" /><feGaussianBlur
       in="composite1"
       stdDeviation="0"
       result="blur"
       id="feGaussianBlur66098" /><feOffset
       dx="0.2"
       dy="0.2"
       result="offset"
       id="feOffset66100" /><feComposite
       in="SourceGraphic"
       in2="offset"
       operator="over"
       result="composite2"
       id="feComposite66102" /></filter><filter
     style="color-interpolation-filters:sRGB"
     id="filter66116"
     x="0"
     y="0"
     width="1.0050066"
     height="1.0237876"><feFlood
       flood-opacity="1"
       flood-color="rgb(82,95,96)"
       result="flood"
       id="feFlood66106" /><feComposite
       in="flood"
       in2="SourceGraphic"
       operator="in"
       result="composite1"
       id="feComposite66108" /><feGaussianBlur
       in="composite1"
       stdDeviation="0"
       result="blur"
       id="feGaussianBlur66110" /><feOffset
       dx="0.2"
       dy="0.2"
       result="offset"
       id="feOffset66112" /><feComposite
       in="SourceGraphic"
       in2="offset"
       operator="over"
       result="composite2"
       id="feComposite66114" /></filter></defs>
<style
   type="text/css"
   id="style2">
	.st0{fill:#EAB05D;stroke:#B2751E;stroke-width:0.25;}
	.st1{fill:#969696;stroke:#FFFFFF;stroke-width:0.25;}
	.st2{fill:#F0F0F0;fill-opacity:0.9412;stroke:#FFFFFF;stroke-width:0.25;}
	.st3{fill:#C8C8C8;fill-opacity:0.9412;stroke:#FFFFFF;stroke-width:0.25;}
	.st4{fill:#CA8C33;fill-opacity:0.9412;stroke:#B2751E;stroke-width:0.25;}
</style>
<filter
   id="filter5686"
   style="color-interpolation-filters:sRGB"
   x="-0.0077966051"
   y="-0.030531744"
   width="1.0285876"
   height="1.0992281">
	<feFlood
   result="flood"
   flood-opacity="1"
   id="feFlood5676"
   flood-color="rgb(121,134,134)" />
	<feComposite
   result="composite1"
   id="feComposite5678"
   in2="SourceGraphic"
   in="flood"
   operator="in" />
	<feGaussianBlur
   result="blur"
   stdDeviation="0.1"
   id="feGaussianBlur5680"
   in="composite1" />
	<feOffset
   result="offset"
   id="feOffset5682"
   dx="0.4"
   dy="0.3" />
	<feComposite
   result="composite2"
   id="feComposite5684"
   in2="offset"
   in="SourceGraphic"
   operator="over" />
</filter>
<filter
   id="filter5430"
   style="color-interpolation-filters:sRGB"
   x="0"
   y="0"
   width="1.0049951"
   height="1.0115145">
	<feFlood
   result="flood"
   flood-opacity="1"
   id="feFlood5420"
   flood-color="rgb(157,157,157)" />
	<feComposite
   result="composite1"
   id="feComposite5422"
   in2="SourceGraphic"
   in="flood"
   operator="in" />
	<feGaussianBlur
   result="blur"
   stdDeviation="0"
   id="feGaussianBlur5424"
   in="composite1" />
	<feOffset
   result="offset"
   id="feOffset5426"
   dx="1"
   dy="0.3" />
	<feComposite
   result="composite2"
   id="feComposite5428"
   in2="offset"
   in="SourceGraphic"
   operator="over" />
</filter>
<g
   id="layer1"
   transform="translate(415.27143,106.52973)">
	
	<g
   id="layer1-3"
   transform="matrix(0.04702846,0,0,0.04178072,-672.91067,-119.07206)"
   style="filter:url(#filter50275)">
		
		
		
		
		
		
		<path
   id="path876"
   class="st1"
   d="m 1861.8253,9438.8824 -24.0259,18.6676 -163.0173,58.0768 11.6761,-12.8111 z" />
		
		<path
   id="path880"
   class="st2"
   d="m 1921.5534,9657.2805 -105.7591,130.4288 -105.7592,138.3596 v 53.1962 l -4.8276,50.5119 4.8276,21.23 -9.6552,23.914 -28.8537,2.685 -69.7202,-2.685 -50.4095,45.266 -28.8537,53.196 -12.0131,18.668 19.1984,39.897 9.6553,13.299 21.6683,-5.368 84.0909,31.966 50.4096,7.93 31.2113,5.37 4.8276,-7.931 7.1853,-58.564 v -53.198 l -9.6552,-34.529 -9.6553,-26.597 14.3707,-26.598 9.6552,-5.369 50.4096,18.667 19.1984,7.931 12.0129,10.615 96.1038,-106.393 110.5869,-130.4287 69.7202,-95.778 12.013,-26.5981 -2.3578,-15.9833 -16.8406,-42.5815 -9.6552,-7.9307 9.6552,-26.5982 31.2113,-26.5981 h 48.052 28.8536 l 4.8276,-50.5123 -19.1983,-61.249 -16.8406,-21.2298 -26.3837,-21.2298 -43.2242,-15.9832 -36.0389,-31.9667 -28.8537,66.4955 -16.8406,63.8112 9.6552,47.95 2.3578,45.2658 -28.8536,-13.2992 -24.026,-10.6149 -26.3837,-7.9306 z"
   style="fill:#ffffff;fill-opacity:0.977901;stroke:#000000;stroke-width:10.2787;stroke-miterlimit:4;stroke-dasharray:none;stroke-opacity:1"
   sodipodi:nodetypes="ccccccccccccccccccccccccccccccccccccccccccccccccccccc" />
		<path
   id="path882"
   class="st3"
   d="m 2118.0275,9757.8168 -9.6554,-39.8973 -21.6683,10.6148 -16.8406,29.2825 -24.026,45.2657 -45.6942,37.2132 -69.7203,69.1794 c 0,0 -14.3706,29.283 -19.1982,42.582 -4.8277,13.299 -21.6683,45.266 -21.6683,45.266 l -72.0779,82.4789 -7.1853,15.983 15.0443,14.031 107.5555,-123.1079 108.1168,-119.6926 55.2373,-79.7943 z"
   style="fill:#ffffff;fill-opacity:0.977901;stroke:#0a0b10;stroke-width:9.97933;stroke-miterlimit:4;stroke-dasharray:none;stroke-opacity:1"
   sodipodi:nodetypes="cccccccscccccccc" />
		<path
   id="path884"
   class="st3"
   d="m 1716.8837,10101.275 -21.6684,21.231 -33.6812,21.229 -31.2113,21.229 19.1984,61.25 4.8276,31.966 -2.3578,15.983 45.6943,-31.966 -7.1853,-45.265 -14.3707,23.912 4.8276,7.932 -16.8405,29.282 -2.3578,-79.793 52.8796,-13.301 19.1984,26.598 2.3577,-34.528 z"
   style="fill:#ffffff;fill-opacity:0.977901;stroke:#010101;stroke-width:9.97933;stroke-miterlimit:4;stroke-dasharray:none;stroke-opacity:1"
   sodipodi:nodetypes="ccccccccccccccccc" />
		<path
   id="path886"
   class="st3"
   d="m 1546.2319,10247.565 48.052,-50.512 2.3576,-26.598 -4.8276,-58.565 -31.2113,50.512 -4.8276,31.967 z"
   style="fill:#ffffff;fill-opacity:0.977901;stroke:#010101;stroke-width:9.97933;stroke-miterlimit:4;stroke-dasharray:none;stroke-opacity:1"
   sodipodi:nodetypes="ccccccc" />
		<path
   id="path894"
   class="st3"
   d="m 2092.2051,9698.7639 -91.2762,-186.1873 38.3966,-18.6676 33.6813,-69.1797 28.8536,15.9833 38.3967,26.5983 45.6942,45.2657 24.026,66.4954 -7.1855,42.5816 16.8407,85.163 -50.4096,2.6842 -52.8796,10.6149 z" />
		<path
   id="path896"
   class="st2"
   d="m 1909.5404,9438.3943 -96.1039,21.2298 -117.7721,45.2658 -103.2891,50.5121 -84.0909,45.2658 -28.8536,29.2825 v 39.8972 l -57.7072,34.5288 -67.2503,34.5289 -38.3966,61.2491 -9.6552,37.2129 19.1982,42.5817 62.5349,-37.2133 26.3835,-34.5287 36.0391,-26.5982 28.8536,-45.2657 28.8536,-18.6675 48.052,37.213 33.6811,13.2992 317.1653,-122.3761 26.3835,-10.615 28.8537,-42.5814 16.8406,-55.8807 -2.3577,-18.6676 26.3836,10.6149 62.535,-71.8639 9.6552,-18.6675 36.039,15.9833 45.6943,23.914 19.1983,26.5981 21.6683,-34.5287 9.6552,-18.6676 -2.3577,-18.6675 -19.1983,-10.615 -43.2243,-23.914 -21.6682,-10.6148 7.1853,-26.5983 -43.2243,18.6676 -31.2114,13.2992 -57.7071,-5.2876 -28.8537,69.0988 h -21.6682 l -24.0259,-21.2298 z"
   style="fill:#ffffff;fill-opacity:0.977901;stroke:#000000;stroke-width:10.2787;stroke-miterlimit:4;stroke-dasharray:none;stroke-opacity:1"
   sodipodi:nodetypes="cccccccccccccccccccccccccccccccccccccccccccc" />
		
		<path
   id="path898"
   class="st3"
   d="m 1922.6761,9443.3968 55.2373,23.9141 26.3836,50.5121 -14.3706,29.2824 -52.8796,93.0937 -26.3836,13.2991 -91.2763,31.9666 -237.9019,79.7946 -9.6553,-39.8972 28.8536,-31.9667 38.3966,7.9306 h 36.0389 l 69.7203,-63.8112 48.0519,-37.2131 36.0389,-2.6843 55.2373,5.3685 50.4096,-34.5288 28.8536,-37.2131 -4.8276,-39.8974 -7.1854,-31.9665 z"
   style="fill:#ffffff;fill-opacity:0.977901;stroke:#0a0b10;stroke-width:9.97933;stroke-miterlimit:4;stroke-dasharray:none;stroke-opacity:1" />
		<path
   id="path900"
   class="st3"
   d="m 1508.2844,9731.0966 -19.1983,-31.9666 -9.6553,37.213 -50.4096,69.1797 -52.8796,50.5126 -48.0519,39.8967 74.5479,-39.8967 c 0,0 16.8405,-39.8977 28.8535,-39.8977 12.013,0 28.8536,-31.9666 28.8536,-31.9666 l 26.3837,-45.2658 z"
   style="fill:#cdc3a9;fill-opacity:1" />
		<path
   id="path902"
   class="st3"
   d="m 1414.6505,9781.8529 -31.2113,31.9665 -57.7073,23.9142 -19.1982,-15.9835 62.5349,-13.2991 z"
   style="fill:#ffffff;fill-opacity:0.977901;stroke:#010101;stroke-width:9.97933;stroke-miterlimit:4;stroke-dasharray:none;stroke-opacity:1"
   sodipodi:nodetypes="cccccc" />
		<path
   id="path904"
   class="st3"
   d="m 2135.2048,9401.5474 36.039,37.2131 14.3707,13.299 -9.6554,47.95 9.6554,13.2991 16.8406,-42.5815 v -39.8973 z"
   style="fill:#cdc3a9;fill-opacity:1" />
		<path
   id="path906"
   class="st3"
   d="m 2125.9986,9406.7938 -26.3836,23.914 -72.0779,29.2824 -31.2113,10.6148 38.3967,10.615 67.2501,-39.8974 z"
   style="fill:#cdc3a9;fill-opacity:1" />
		<path
   id="path908"
   class="st3"
   d="m 2103.3199,9388.2482 -52.8796,34.5288 43.2243,-42.5813 z"
   style="fill:#000000;fill-opacity:0" />
		<path
   id="path910"
   class="st2"
   d="m 1929.7492,9711.819 -14.3707,15.9833 4.8277,58.5648 -28.8536,47.9503 -105.7592,69.1795 -204.2207,141.0441 -48.052,-13.299 -48.0519,-23.914 14.3707,42.582 -16.8406,47.95 -24.026,42.581 -16.8405,37.212 -26.3838,18.668 h -33.6812 l -64.8926,-39.897 -43.2242,-23.914 9.6553,-26.598 50.4096,-87.848 62.5349,-61.2489 62.5349,-42.5814 52.8795,-71.8636 86.5608,-77.1107 79.2633,-69.1797 67.2502,-58.5648 43.2243,-23.914 52.8795,13.2991 26.3837,10.6149 v 7.9306 l 19.1984,13.299 16.8405,-5.3683 19.1984,-7.9307 31.2112,-63.8113 24.026,-39.8972 19.1983,-26.5983 16.8406,-13.2991 24.026,-15.9832 19.1984,-31.9667 9.6552,-21.2298 4.8276,-10.6148 24.026,15.9833 45.6942,29.2825 28.8536,21.2296 16.8408,21.2298 19.1983,47.9499 4.8275,42.5816 v 42.5815 26.5982 l 16.8407,50.5121 -86.5609,5.3686 -55.2372,-5.3686 -48.0519,2.6843 -26.3837,7.9307 -33.6812,-21.2298 -38.3967,-10.6149 z"
   style="fill:#ffffff;fill-opacity:0.977901;stroke:#010101;stroke-width:9.97933;stroke-miterlimit:4;stroke-dasharray:none;stroke-opacity:1"
   sodipodi:nodetypes="ccccccccccccccccccccccccccccccccccccccccccccccccccccccc" />
		<path
   id="path912"
   class="st3"
   d="m 2028.2107,9494.397 60.065,-66.4954 43.2243,31.9666 48.0519,29.2824 4.8275,13.299 -52.8794,-34.5287 -33.6813,-7.9307 -16.8407,13.299 -24.026,13.2992 z"
   style="fill:#cdc3a9;fill-opacity:1;stroke:#010101;stroke-width:9.97933;stroke-miterlimit:4;stroke-dasharray:none;stroke-opacity:1"
   sodipodi:nodetypes="cccccccccc" />
		<path
   id="path914"
   class="st3"
   d="m 2011.2578,9646.2996 -36.0389,15.9832 -14.3707,21.2298 -21.6683,23.9141 c 0,0 -19.1983,0 -19.1983,18.6675 0,18.6676 -12.013,31.9666 -12.013,31.9666 l -43.2242,7.9307 -81.7332,50.5121 -57.7072,26.5984 -110.5868,93.0938 -69.7203,53.1963 h -21.6682 l -32.7831,20.8639 42.4384,19.033 57.7073,21.23 110.5867,-77.1109 122.5997,-74.5477 81.7333,-63.8111 14.3706,-18.6677 12.013,-29.2824 2.3577,-37.2131 -9.6553,-29.2824 28.8536,-21.2297 33.6812,-23.914 z"
   style="fill:#ffffff;fill-opacity:0.977901;stroke:#0a0b10;stroke-width:9.97933;stroke-miterlimit:4;stroke-dasharray:none;stroke-opacity:1"
   sodipodi:nodetypes="ccccscccccccccccccccccccc" />
		<path
   id="path916"
   class="st3"
   d="m 1490.6579,10010.377 -16.0547,-39.5309 7.1853,66.4969 23.3523,15.495 -16.8406,47.95 -20.8824,13.787 -3.1436,28.794 -30.5377,13.787 30.5377,-13.787 v 0 l 24.026,-42.581 16.8406,-47.95 z"
   style="fill:#cfc5ac;fill-opacity:0.858824" />
		<path
   id="path918"
   class="st3"
   d="m 1438.3397,10098.591 19.1983,-50.512 -7.1854,-26.599 -36.0389,-34.5289 21.6682,39.8989 v 29.282 z"
   style="fill:#ffffff;fill-opacity:0.977901;stroke:#010101;stroke-width:9.97933;stroke-miterlimit:4;stroke-dasharray:none;stroke-opacity:1"
   sodipodi:nodetypes="ccccccc" />
		<path
   id="path920"
   class="st3"
   d="m 1366.8231,10037.098 -7.1854,45.266 -2.3576,53.196 12.013,-5.368 -7.1853,-26.599 16.8406,-29.282 -2.3578,-13.298 z"
   style="fill:#ffffff;fill-opacity:0.977901;stroke:#010101;stroke-width:9.97933;stroke-miterlimit:4;stroke-dasharray:none;stroke-opacity:1"
   sodipodi:nodetypes="cccccccc" /><path
   d="m -3989.4624,8848.3086 c -0.2023,0.4554 0.9076,1.1866 0.9076,1.1866 l 4.5288,-4.0987"
   style="fill:#ebe4d2;fill-opacity:0.9412;stroke:#ffffff;stroke-width:0.25"
   id="path4542" />
	</g><g
   inkscape:groupmode="layer"
   id="layer2"
   inkscape:label="Layer 1" />
</g>
</svg>
