<svg xmlns="http://www.w3.org/2000/svg" xmlns:svg="http://www.w3.org/2000/svg" id="svg5" width="800" height="450" version="1.1" viewBox="0 0 211.667 119.063"><defs id="defs2"><rect id="rect32072" width="478.164" height="39.361" x="467.96" y="110.794"/><rect id="rect15072" width="666.223" height="279.901" x="59.771" y="67.06"/><rect id="rect10776" width="645.813" height="269.696" x="42.277" y="43.735"/><rect id="rect4016" width="685.174" height="287.19" x="39.361" y="36.445"/></defs><g id="layer1"><text id="text15070" transform="matrix(0.29303768,0,0,0.54192163,-8.2730669,-31.914009)" xml:space="preserve" style="font-style:normal;font-variant:normal;font-weight:400;font-stretch:normal;font-size:37.3333px;line-height:1.25;font-family:Gadugi;-inkscape-font-specification:Gadugi;white-space:pre;shape-inside:url(#rect15072);stroke:#fff;stroke-opacity:1;fill:#fff"><tspan id="tspan60847" x="59.771" y="100.689"><tspan style="font-size:38.5737px" id="tspan60845">Love, love, love! Packaged very </tspan></tspan><tspan id="tspan60851" x="59.771" y="149.443"><tspan style="font-size:38.5737px" id="tspan60849">well! Abundant serving amount! </tspan></tspan><tspan id="tspan60859" x="59.771" y="205.747"><tspan style="font-size:38.5737px" id="tspan60853">Great prices!</tspan></tspan></text><path style="fill:#efd953;fill-opacity:.918033;stroke:#100507;stroke-width:6.09638;stroke-linecap:round;stroke-linejoin:round" id="path59830" d="m 83.095616,389.23734 -22.88717,-11.37541 -22.345878,12.40501 3.746134,-25.28218 -18.703122,-17.41884 25.202407,-4.24984 10.786714,-23.17044 11.82981,22.65564 25.369678,3.09871 -17.891183,18.2518 z" transform="matrix(0.26458333,0,0,0.26458333,5.7315479,10.028571)"/><path style="fill:#efd953;fill-opacity:.91764706;stroke:#100507;stroke-width:6.09638;stroke-linecap:round;stroke-linejoin:round" id="path59830-7" d="m 83.095616,389.23734 -22.88717,-11.37541 -22.345878,12.40501 3.746134,-25.28218 -18.703122,-17.41884 25.202407,-4.24984 10.786714,-23.17044 11.82981,22.65564 25.369678,3.09871 -17.891183,18.2518 z" transform="matrix(0.26458333,0,0,0.26458333,27.645417,9.7754625)"/><path style="mix-blend-mode:screen;fill:#efd953;fill-opacity:.917647;stroke:#100507;stroke-width:6.09638;stroke-linecap:round;stroke-linejoin:round" id="path59830-2" d="m 83.095616,389.23734 -22.88717,-11.37541 -22.345878,12.40501 3.746134,-25.28218 -18.703122,-17.41884 25.202407,-4.24984 10.786714,-23.17044 11.82981,22.65564 25.369678,3.09871 -17.891183,18.2518 z" transform="matrix(0.26458333,0,0,0.26458333,93.25111,9.4790343)"/><path style="fill:#efd953;fill-opacity:.917647;stroke:#100507;stroke-width:6.09638;stroke-linecap:round;stroke-linejoin:round" id="path59830-6" d="m 83.095616,389.23734 -22.88717,-11.37541 -22.345878,12.40501 3.746134,-25.28218 -18.703122,-17.41884 25.202407,-4.24984 10.786714,-23.17044 11.82981,22.65564 25.369678,3.09871 -17.891183,18.2518 z" transform="matrix(0.26458333,0,0,0.26458333,49.245414,9.9189096)"/><path style="fill:#efd953;fill-opacity:.917647;stroke:#100507;stroke-width:6.09638;stroke-linecap:round;stroke-linejoin:round" id="path59830-69" d="m 83.095616,389.23734 -22.88717,-11.37541 -22.345878,12.40501 3.746134,-25.28218 -18.703122,-17.41884 25.202407,-4.24984 10.786714,-23.17044 11.82981,22.65564 25.369678,3.09871 -17.891183,18.2518 z" transform="matrix(0.26458333,0,0,0.26458333,71.473395,9.5332013)"/></g></svg>