<?xml version="1.0" encoding="UTF-8" standalone="no"?>
<!-- Created with Inkscape (http://www.inkscape.org/) -->

<svg
   width="800"
   height="450"
   viewBox="0 0 211.66666 119.0625"
   version="1.1"
   id="svg5"
   xmlns="http://www.w3.org/2000/svg"
   xmlns:svg="http://www.w3.org/2000/svg">
  <defs
     id="defs2">
    <rect
       x="467.95951"
       y="110.79415"
       width="478.16423"
       height="39.36108"
       id="rect32072" />
    <rect
       x="59.770529"
       y="67.059618"
       width="666.22272"
       height="279.90102"
       id="rect15072" />
    <rect
       x="42.276715"
       y="43.734533"
       width="645.81327"
       height="269.69629"
       id="rect10776" />
    <rect
       x="39.36108"
       y="36.445444"
       width="685.17435"
       height="287.1901"
       id="rect4016" />
  </defs>
  <g
     id="layer1">
    <text
       xml:space="preserve"
       transform="scale(0.26458333)"
       id="text10774"
       style="line-height:1.25;font-family:Pacifico;font-size:37.33333333px;-inkscape-font-specification:Pacifico;white-space:pre;shape-inside:url(#rect10776)" />
    <text
       xml:space="preserve"
       transform="matrix(0.29303768,0,0,0.54192163,-8.2730669,-31.914009)"
       id="text15070"
       style="font-style:normal;font-variant:normal;font-weight:normal;font-stretch:normal;font-size:37.3333px;line-height:1.25;font-family:Gadugi;-inkscape-font-specification:Gadugi;white-space:pre;shape-inside:url(#rect15072);stroke:#ffffff;stroke-opacity:1;fill:#ffffff"><tspan
         x="59.771484"
         y="100.68868"
         id="tspan60847"><tspan
           style="font-size:38.5737px"
           id="tspan60845">Love, love, love!  Packaged very </tspan></tspan><tspan
         x="59.771484"
         y="149.44312"
         id="tspan60851"><tspan
           style="font-size:38.5737px"
           id="tspan60849">well!  Abundant serving amount!  </tspan></tspan><tspan
         x="59.771484"
         y="205.74669"
         id="tspan60859"><tspan
           style="font-size:38.5737px"
           id="tspan60853">Great prices! </tspan><tspan
           style="font-size:48px;font-family:'Segoe Print';-inkscape-font-specification:'Segoe Print'"
           id="tspan60855"> </tspan><tspan
           style="font-family:'Segoe Print';-inkscape-font-specification:'Segoe Print'"
           id="tspan60857">  </tspan></tspan></text>
    <text
       xml:space="preserve"
       style="font-size:9.87777px;line-height:1.25;font-family:Pacifico;-inkscape-font-specification:Pacifico;stroke-width:0.264583"
       x="-106.84286"
       y="114.55714"
       id="text18048"><tspan
         id="tspan18046"
         style="stroke-width:0.264583"
         x="-106.84286"
         y="114.55714" /></text>
    <text
       xml:space="preserve"
       style="font-size:9.87777px;line-height:1.25;font-family:Gadugi;-inkscape-font-specification:Gadugi;stroke-width:0.264583"
       x="89.871429"
       y="26.999998"
       id="text22536"><tspan
         style="stroke-width:0.264583"
         x="89.871429"
         y="26.999998"
         id="tspan25906" /></text>
    <text
       xml:space="preserve"
       transform="scale(0.26458333)"
       id="text32070"
       style="line-height:1.25;font-family:Gadugi;font-size:37.33333333px;-inkscape-font-specification:Gadugi;white-space:pre;shape-inside:url(#rect32072)" />
    <path
       style="fill:#efd953;fill-opacity:0.918033;stroke:#100507;stroke-width:6.09638;stroke-linecap:round;stroke-linejoin:round"
       id="path59830"
       d="m 83.095616,389.23734 -22.88717,-11.37541 -22.345878,12.40501 3.746134,-25.28218 -18.703122,-17.41884 25.202407,-4.24984 10.786714,-23.17044 11.82981,22.65564 25.369678,3.09871 -17.891183,18.2518 z"
       transform="matrix(0.26458333,0,0,0.26458333,5.7315479,10.028571)" />
    <path
       style="fill:#efd953;fill-opacity:0.91764706;stroke:#100507;stroke-width:6.09638;stroke-linecap:round;stroke-linejoin:round"
       id="path59830-7"
       transform="matrix(0.26458333,0,0,0.26458333,27.645417,9.7754625)"
       d="m 83.095616,389.23734 -22.88717,-11.37541 -22.345878,12.40501 3.746134,-25.28218 -18.703122,-17.41884 25.202407,-4.24984 10.786714,-23.17044 11.82981,22.65564 25.369678,3.09871 -17.891183,18.2518 z" />
    <path
       style="mix-blend-mode:screen;fill:#efd953;fill-opacity:0.917647;stroke:#100507;stroke-width:6.09638;stroke-linecap:round;stroke-linejoin:round"
       id="path59830-2"
       transform="matrix(0.26458333,0,0,0.26458333,93.25111,9.4790343)"
       d="m 83.095616,389.23734 -22.88717,-11.37541 -22.345878,12.40501 3.746134,-25.28218 -18.703122,-17.41884 25.202407,-4.24984 10.786714,-23.17044 11.82981,22.65564 25.369678,3.09871 -17.891183,18.2518 z" />
    <path
       style="fill:#efd953;fill-opacity:0.917647;stroke:#100507;stroke-width:6.09638;stroke-linecap:round;stroke-linejoin:round"
       id="path59830-6"
       transform="matrix(0.26458333,0,0,0.26458333,49.245414,9.9189096)"
       d="m 83.095616,389.23734 -22.88717,-11.37541 -22.345878,12.40501 3.746134,-25.28218 -18.703122,-17.41884 25.202407,-4.24984 10.786714,-23.17044 11.82981,22.65564 25.369678,3.09871 -17.891183,18.2518 z" />
    <path
       style="fill:#efd953;fill-opacity:0.917647;stroke:#100507;stroke-width:6.09638;stroke-linecap:round;stroke-linejoin:round"
       id="path59830-69"
       transform="matrix(0.26458333,0,0,0.26458333,71.473395,9.5332013)"
       d="m 83.095616,389.23734 -22.88717,-11.37541 -22.345878,12.40501 3.746134,-25.28218 -18.703122,-17.41884 25.202407,-4.24984 10.786714,-23.17044 11.82981,22.65564 25.369678,3.09871 -17.891183,18.2518 z" />
  </g>
</svg>
