<svg xmlns="http://www.w3.org/2000/svg" xmlns:svg="http://www.w3.org/2000/svg" id="svg62162" width="522" height="306" version="1.1" viewBox="0 0 138.113 80.963"><defs id="defs62159"><rect id="rect77210" width="491.785" height="235.745" x="14.051" y="14.051"/><rect id="rect73420" width="423.092" height="190.469" x="60.888" y="20.296"/><rect id="rect64610" width="490.224" height="201.398" x="21.857" y="20.296"/></defs><g id="layer1"><text id="text77208" transform="matrix(0.26458333,0,0,0.26458333,0,1.0583333)" xml:space="preserve" style="font-size:24px;line-height:1.25;font-family:Gadugi;-inkscape-font-specification:Gadugi;word-spacing:0;white-space:pre;shape-inside:url(#rect77210)"><tspan id="tspan114766" x="14.051" y="35.669"><tspan style="font-family:'MV Boli';-inkscape-font-specification:'MV Boli';fill:#fff" id="tspan114764">&quot;I ordered the milk chocolate covered </tspan></tspan><tspan id="tspan114770" x="14.051" y="66.053"><tspan style="font-family:'MV Boli';-inkscape-font-specification:'MV Boli';fill:#fff" id="tspan114768">caramels as a gift. I tried one tonight, </tspan></tspan><tspan id="tspan114774" x="14.051" y="96.438"><tspan style="font-family:'MV Boli';-inkscape-font-specification:'MV Boli';fill:#fff" id="tspan114772">though--because they looked so good. </tspan></tspan><tspan id="tspan114778" x="14.051" y="126.823"><tspan style="font-family:'MV Boli';-inkscape-font-specification:'MV Boli';fill:#fff" id="tspan114776">They are absolutely deliicious! She made </tspan></tspan><tspan id="tspan114782" x="14.051" y="157.207"><tspan style="font-family:'MV Boli';-inkscape-font-specification:'MV Boli';fill:#fff" id="tspan114780">them and sent them just when I needed </tspan></tspan><tspan id="tspan114786" x="14.051" y="187.592"><tspan style="font-family:'MV Boli';-inkscape-font-specification:'MV Boli';fill:#fff" id="tspan114784">them. I&apos;m so happy with everything!&quot;</tspan></tspan></text><path style="fill:#efd953;fill-opacity:.918033;stroke:#100507;stroke-width:6.09638;stroke-linecap:round;stroke-linejoin:round" id="path59830" d="m 83.095616,389.23734 -22.88717,-11.37541 -22.345878,12.40501 3.746134,-25.28218 -18.703122,-17.41884 25.202407,-4.24984 10.786714,-23.17044 11.82981,22.65564 25.369678,3.09871 -17.891183,18.2518 z" transform="matrix(0.15390833,0,0,0.08990817,16.608518,33.836135)"/><path style="fill:#efd953;fill-opacity:.917647;stroke:#100507;stroke-width:6.09638;stroke-linecap:round;stroke-linejoin:round" id="path59830-7" d="m 83.095616,389.23734 -22.88717,-11.37541 -22.345878,12.40501 3.746134,-25.28218 -18.703122,-17.41884 25.202407,-4.24984 10.786714,-23.17044 11.82981,22.65564 25.369678,3.09871 -17.891183,18.2518 z" transform="matrix(0.15390833,0,0,0.08990817,29.355833,33.750126)"/><path style="mix-blend-mode:screen;fill:#efd953;fill-opacity:.917647;stroke:#100507;stroke-width:6.09638;stroke-linecap:round;stroke-linejoin:round" id="path59830-2" d="m 83.095616,389.23734 -22.88717,-11.37541 -22.345878,12.40501 3.746134,-25.28218 -18.703122,-17.41884 25.202407,-4.24984 10.786714,-23.17044 11.82981,22.65564 25.369678,3.09871 -17.891183,18.2518 z" transform="matrix(0.15390833,0,0,0.08990817,67.518708,33.649396)"/><path style="fill:#efd953;fill-opacity:.917647;stroke:#100507;stroke-width:6.09638;stroke-linecap:round;stroke-linejoin:round" id="path59830-6" d="m 83.095616,389.23734 -22.88717,-11.37541 -22.345878,12.40501 3.746134,-25.28218 -18.703122,-17.41884 25.202407,-4.24984 10.786714,-23.17044 11.82981,22.65564 25.369678,3.09871 -17.891183,18.2518 z" transform="matrix(0.15390833,0,0,0.08990817,41.920567,33.79887)"/><path style="fill:#efd953;fill-opacity:.917647;stroke:#100507;stroke-width:6.09638;stroke-linecap:round;stroke-linejoin:round" id="path59830-69" d="m 83.095616,389.23734 -22.88717,-11.37541 -22.345878,12.40501 3.746134,-25.28218 -18.703122,-17.41884 25.202407,-4.24984 10.786714,-23.17044 11.82981,22.65564 25.369678,3.09871 -17.891183,18.2518 z" transform="matrix(0.15390833,0,0,0.08990817,54.850599,33.667802)"/></g></svg>