<svg xmlns="http://www.w3.org/2000/svg" xmlns:svg="http://www.w3.org/2000/svg" id="svg5" width="522.195" height="306.524" version="1.1" viewBox="0 0 138.164 81.101"><defs id="defs2"><rect id="rect32072" width="478.164" height="39.361" x="467.959" y="110.794"/><rect id="rect15072" width="666.223" height="279.901" x="59.771" y="67.06"/><rect id="rect10776" width="645.813" height="269.696" x="42.277" y="43.735"/><rect id="rect4016" width="685.174" height="287.19" x="39.361" y="36.445"/></defs><g id="layer1" transform="translate(-32.842293,-10.480152)"><g id="g61787" transform="matrix(0.91566378,0,0,0.90136832,2.7683643,1.0350894)"><text id="text15070" transform="matrix(0.22872311,0,0,0.42440567,18.814649,-18.492143)" xml:space="preserve" style="font-style:normal;font-variant:normal;font-weight:400;font-stretch:normal;font-size:37.3333px;line-height:1.25;font-family:Gadugi;-inkscape-font-specification:Gadugi;white-space:pre;shape-inside:url(#rect15072);fill:#fff;stroke:#fff;stroke-opacity:1"><tspan id="tspan61859" x="59.771" y="100.689"><tspan style="font-size:38.5737px" id="tspan61857">Love, love, love! Packaged very </tspan></tspan><tspan id="tspan61863" x="59.771" y="149.443"><tspan style="font-size:38.5737px" id="tspan61861">well! Abundant serving amount! </tspan></tspan><tspan id="tspan61871" x="59.771" y="205.747"><tspan style="font-size:38.5737px" id="tspan61865">Great prices!</tspan></tspan></text><path style="fill:#efd953;fill-opacity:.918033;stroke:#100507;stroke-width:6.09638;stroke-linecap:round;stroke-linejoin:round" id="path59830" d="m 83.095616,389.23734 -22.88717,-11.37541 -22.345878,12.40501 3.746134,-25.28218 -18.703122,-17.41884 25.202407,-4.24984 10.786714,-23.17044 11.82981,22.65564 25.369678,3.09871 -17.891183,18.2518 z" transform="matrix(0.20987688,0,0,0.12309267,59.884547,52.040017)"/><path style="fill:#efd953;fill-opacity:.917647;stroke:#100507;stroke-width:6.09638;stroke-linecap:round;stroke-linejoin:round" id="path59830-7" d="m 83.095616,389.23734 -22.88717,-11.37541 -22.345878,12.40501 3.746134,-25.28218 -18.703122,-17.41884 25.202407,-4.24984 10.786714,-23.17044 11.82981,22.65564 25.369678,3.09871 -17.891183,18.2518 z" transform="matrix(0.20987688,0,0,0.12309267,77.267405,51.922262)"/><path style="mix-blend-mode:screen;fill:#efd953;fill-opacity:.917647;stroke:#100507;stroke-width:6.09638;stroke-linecap:round;stroke-linejoin:round" id="path59830-2" d="m 83.095616,389.23734 -22.88717,-11.37541 -22.345878,12.40501 3.746134,-25.28218 -18.703122,-17.41884 25.202407,-4.24984 10.786714,-23.17044 11.82981,22.65564 25.369678,3.09871 -17.891183,18.2518 z" transform="matrix(0.20987688,0,0,0.12309267,129.30816,51.784354)"/><path style="fill:#efd953;fill-opacity:.917647;stroke:#100507;stroke-width:6.09638;stroke-linecap:round;stroke-linejoin:round" id="path59830-6" d="m 83.095616,389.23734 -22.88717,-11.37541 -22.345878,12.40501 3.746134,-25.28218 -18.703122,-17.41884 25.202407,-4.24984 10.786714,-23.17044 11.82981,22.65564 25.369678,3.09871 -17.891183,18.2518 z" transform="matrix(0.20987688,0,0,0.12309267,94.401289,51.988998)"/><path style="fill:#efd953;fill-opacity:.917647;stroke:#100507;stroke-width:6.09638;stroke-linecap:round;stroke-linejoin:round" id="path59830-69" d="m 83.095616,389.23734 -22.88717,-11.37541 -22.345878,12.40501 3.746134,-25.28218 -18.703122,-17.41884 25.202407,-4.24984 10.786714,-23.17044 11.82981,22.65564 25.369678,3.09871 -17.891183,18.2518 z" transform="matrix(0.20987688,0,0,0.12309267,112.03331,51.809554)"/></g></g></svg>