<svg xmlns="http://www.w3.org/2000/svg" xmlns:svg="http://www.w3.org/2000/svg" id="svg1003" width="522" height="306" version="1.1" viewBox="0 0 138.113 80.963"><defs id="defs1000"><rect id="rect4771" width="492.742" height="128.288" x="10.205" y="20.409"/></defs><g id="layer1"><text id="text4769" x="212.165" y="0" transform="scale(0.26458333)" xml:space="preserve" style="font-size:37.3333px;line-height:1.25;font-family:Pacifico;-inkscape-font-specification:Pacifico;white-space:pre;shape-inside:url(#rect4771)"><tspan id="tspan22611" x="54.442" y="52.779"><tspan style="font-family:Candara;-inkscape-font-specification:Candara;text-align:center;text-anchor:middle;fill:#fff" id="tspan22609">Love all your candies! The </tspan></tspan><tspan id="tspan22615" x="78.505" y="100.096"><tspan style="font-family:Candara;-inkscape-font-specification:Candara;text-align:center;text-anchor:middle;fill:#fff" id="tspan22613">caramels are to die for!</tspan></tspan></text><path style="fill:#efd953;fill-opacity:.918033;stroke:#100507;stroke-width:6.09638;stroke-linecap:round;stroke-linejoin:round" id="path59830" d="m 83.095616,389.23734 -22.88717,-11.37541 -22.345878,12.40501 3.746134,-25.28218 -18.703122,-17.41884 25.202407,-4.24984 10.786714,-23.17044 11.82981,22.65564 25.369678,3.09871 -17.891183,18.2518 z" transform="matrix(0.11621147,0,0,0.07552829,23.236501,15.486026)"/><path style="fill:#efd953;fill-opacity:.917647;stroke:#100507;stroke-width:6.09638;stroke-linecap:round;stroke-linejoin:round" id="path59830-7" d="m 83.095616,389.23734 -22.88717,-11.37541 -22.345878,12.40501 3.746134,-25.28218 -18.703122,-17.41884 25.202407,-4.24984 10.786714,-23.17044 11.82981,22.65564 25.369678,3.09871 -17.891183,18.2518 z" transform="matrix(0.11621147,0,0,0.07552829,32.861605,15.413774)"/><path style="mix-blend-mode:screen;fill:#efd953;fill-opacity:.917647;stroke:#100507;stroke-width:6.09638;stroke-linecap:round;stroke-linejoin:round" id="path59830-2" d="m 83.095616,389.23734 -22.88717,-11.37541 -22.345878,12.40501 3.746134,-25.28218 -18.703122,-17.41884 25.202407,-4.24984 10.786714,-23.17044 11.82981,22.65564 25.369678,3.09871 -17.891183,18.2518 z" transform="matrix(0.11621147,0,0,0.07552829,61.677229,15.329154)"/><path style="fill:#efd953;fill-opacity:.917647;stroke:#100507;stroke-width:6.09638;stroke-linecap:round;stroke-linejoin:round" id="path59830-6" d="m 83.095616,389.23734 -22.88717,-11.37541 -22.345878,12.40501 3.746134,-25.28218 -18.703122,-17.41884 25.202407,-4.24984 10.786714,-23.17044 11.82981,22.65564 25.369678,3.09871 -17.891183,18.2518 z" transform="matrix(0.11621147,0,0,0.07552829,42.348856,15.454721)"/><path style="fill:#efd953;fill-opacity:.917647;stroke:#100507;stroke-width:6.09638;stroke-linecap:round;stroke-linejoin:round" id="path59830-69" d="m 83.095616,389.23734 -22.88717,-11.37541 -22.345878,12.40501 3.746134,-25.28218 -18.703122,-17.41884 25.202407,-4.24984 10.786714,-23.17044 11.82981,22.65564 25.369678,3.09871 -17.891183,18.2518 z" transform="matrix(0.11621147,0,0,0.07552829,52.111926,15.344616)"/></g></svg>